<svg xmlns="http://www.w3.org/2000/svg" viewBox="0 0 14 14"><path d="M1 3.72v6.56a.092.092 0 00.09.1h.75l-.57 1h-.18A1.095 1.095 0 010 10.28V3.72a1.095 1.095 0 011.09-1.1h5.17l-.57 1h-4.6a.092.092 0 00-.09.1zm13 5.55a.734.734 0 01-.73.73.721.721 0 01-.34-.09L10.47 8.8v1.48a1.095 1.095 0 01-1.09 1.1H3.65l-.91 1.63a.59.59 0 01-.52.31.603.603 0 01-.29-.08.578.578 0 01-.21-.2l.94-1.66.57-1 3.84-6.76.57-1L8.62.9a.191.191 0 00.03-.08.67.67 0 01.18.07.595.595 0 01.23.81l-.51.92h.83a1.095 1.095 0 011.09 1.1v1.46l2.45-1.12a.707.707 0 01.34-.08.721.721 0 01.73.73zM9.48 3.72a.1.1 0 00-.1-.1H7.99l-3.78 6.76h5.17a.1.1 0 00.1-.1zM13 5.13l-2.5 1.14v1.45L13 8.85z"/></svg>