<svg data-tags="twitter" xmlns="http://www.w3.org/2000/svg" viewBox="0 0 14 14"><path fill="#17a6df" d="M0 0v14h14V0zm10.226 5.59s.306 1.674-1.722 3.269c-2.029 1.595-5.166.654-5.568.335a4.25 4.25 0 002.373-.637 1.857 1.857 0 01-1.473-.941 2.12 2.12 0 00.765-.064S3.358 7.297 3.243 6.23a1.182 1.182 0 00.67.064 1.327 1.327 0 01-.48-1.818 5.074 5.074 0 003.521 1.467 1.428 1.428 0 01.861-1.595 1.842 1.842 0 011.952.303 2.43 2.43 0 001.014-.351s.095.287-.65.765a4.121 4.121 0 00.88-.191 1.574 1.574 0 01-.785.717z"/></svg>